<svg width="185" height="16" viewBox="0 0 185 16" fill="none" xmlns="http://www.w3.org/2000/svg">
<path d="M0.92 15L6.68 0.999999H10.02L15.72 15H12.58L11.16 11.32H5.38L3.94 15H0.92ZM6.28 9H10.28L8.28 3.84L6.28 9ZM17.3084 15V0.999999H23.8884C24.8351 0.999999 25.6618 1.16 26.3684 1.48C27.0751 1.8 27.6284 2.25333 28.0284 2.84C28.4284 3.41333 28.6284 4.08 28.6284 4.84C28.6284 5.45333 28.4684 6.02 28.1484 6.54C27.8418 7.04667 27.4218 7.46 26.8884 7.78C27.5684 8.1 28.1084 8.53333 28.5084 9.08C28.9084 9.62667 29.1084 10.2467 29.1084 10.94C29.1084 11.74 28.9018 12.4467 28.4884 13.06C28.0884 13.6733 27.5151 14.1533 26.7684 14.5C26.0351 14.8333 25.1818 15 24.2084 15H17.3084ZM20.2084 6.72H23.7084C24.3351 6.72 24.8284 6.57333 25.1884 6.28C25.5618 5.97333 25.7484 5.56667 25.7484 5.06C25.7484 4.55333 25.5618 4.15333 25.1884 3.86C24.8284 3.55333 24.3351 3.4 23.7084 3.4H20.2084V6.72ZM20.2084 12.6H23.9884C24.6551 12.6 25.1884 12.44 25.5884 12.12C25.9884 11.7867 26.1884 11.3467 26.1884 10.8C26.1884 10.24 25.9884 9.8 25.5884 9.48C25.1884 9.14667 24.6551 8.98 23.9884 8.98H20.2084V12.6ZM38.2012 15.22C37.1612 15.22 36.1946 15.04 35.3012 14.68C34.4079 14.3067 33.6212 13.7933 32.9412 13.14C32.2746 12.4733 31.7479 11.7067 31.3612 10.84C30.9879 9.96 30.8012 9.01333 30.8012 8C30.8012 6.98667 30.9879 6.04667 31.3612 5.18C31.7479 4.3 32.2746 3.53333 32.9412 2.88C33.6212 2.21333 34.4079 1.7 35.3012 1.34C36.1946 0.966666 37.1612 0.779999 38.2012 0.779999C39.2412 0.779999 40.2079 0.966666 41.1012 1.34C42.0079 1.7 42.7946 2.21333 43.4612 2.88C44.1412 3.53333 44.6679 4.3 45.0412 5.18C45.4146 6.04667 45.6012 6.98667 45.6012 8C45.6012 9.01333 45.4146 9.96 45.0412 10.84C44.6679 11.7067 44.1412 12.4733 43.4612 13.14C42.7946 13.7933 42.0079 14.3067 41.1012 14.68C40.2079 15.04 39.2412 15.22 38.2012 15.22ZM38.2012 12.56C38.8412 12.56 39.4279 12.4467 39.9612 12.22C40.4946 11.98 40.9612 11.66 41.3612 11.26C41.7612 10.8467 42.0746 10.36 42.3012 9.8C42.5279 9.24 42.6412 8.64 42.6412 8C42.6412 7.34667 42.5279 6.74667 42.3012 6.2C42.0746 5.64 41.7612 5.16 41.3612 4.76C40.9612 4.34667 40.4946 4.02667 39.9612 3.8C39.4279 3.56 38.8412 3.44 38.2012 3.44C37.5746 3.44 36.9946 3.56 36.4612 3.8C35.9279 4.02667 35.4612 4.34667 35.0612 4.76C34.6612 5.16 34.3479 5.64 34.1212 6.2C33.8946 6.74667 33.7812 7.34 33.7812 7.98C33.7812 8.63333 33.8946 9.24 34.1212 9.8C34.3479 10.36 34.6612 10.8467 35.0612 11.26C35.4612 11.66 35.9279 11.98 36.4612 12.22C36.9946 12.4467 37.5746 12.56 38.2012 12.56ZM53.9908 15.2C52.7241 15.2 51.6241 14.9467 50.6908 14.44C49.7708 13.9333 49.0574 13.2133 48.5508 12.28C48.0441 11.3333 47.7908 10.2267 47.7908 8.96V0.999999H50.6908V8.96C50.6908 9.68 50.8241 10.3133 51.0908 10.86C51.3708 11.3933 51.7574 11.8067 52.2508 12.1C52.7574 12.38 53.3441 12.52 54.0108 12.52C54.6774 12.52 55.2574 12.38 55.7508 12.1C56.2441 11.8067 56.6241 11.3933 56.8908 10.86C57.1708 10.3133 57.3108 9.68 57.3108 8.96V0.999999H60.1908V8.96C60.1908 10.2133 59.9374 11.3133 59.4308 12.26C58.9241 13.1933 58.2041 13.92 57.2708 14.44C56.3508 14.9467 55.2574 15.2 53.9908 15.2ZM66.723 15V3.56H62.003V0.999999H74.323V3.56H69.623V15H66.723ZM84.5933 15V3.56H79.8733V0.999999H92.1933V3.56H87.4933V15H84.5933ZM94.2202 15V0.999999H97.1202V6.64H103.56V0.999999H106.46V15H103.56V9.26H97.1202V15H94.2202ZM109.405 15V0.999999H120.165V3.52H112.305V6.72H117.485V9.16H112.305V12.48H120.245V15H109.405ZM127.119 15V0.999999H133.699C134.646 0.999999 135.473 1.16 136.179 1.48C136.886 1.8 137.439 2.25333 137.839 2.84C138.239 3.41333 138.439 4.08 138.439 4.84C138.439 5.45333 138.279 6.02 137.959 6.54C137.653 7.04667 137.233 7.46 136.699 7.78C137.379 8.1 137.919 8.53333 138.319 9.08C138.719 9.62667 138.919 10.2467 138.919 10.94C138.919 11.74 138.713 12.4467 138.299 13.06C137.899 13.6733 137.326 14.1533 136.579 14.5C135.846 14.8333 134.993 15 134.019 15H127.119ZM130.019 6.72H133.519C134.146 6.72 134.639 6.57333 134.999 6.28C135.373 5.97333 135.559 5.56667 135.559 5.06C135.559 4.55333 135.373 4.15333 134.999 3.86C134.639 3.55333 134.146 3.4 133.519 3.4H130.019V6.72ZM130.019 12.6H133.799C134.466 12.6 134.999 12.44 135.399 12.12C135.799 11.7867 135.999 11.3467 135.999 10.8C135.999 10.24 135.799 9.8 135.399 9.48C134.999 9.14667 134.466 8.98 133.799 8.98H130.019V12.6ZM139.734 15L145.494 0.999999H148.834L154.534 15H151.394L149.974 11.32H144.194L142.754 15H139.734ZM145.094 9H149.094L147.094 3.84L145.094 9ZM156.123 15V0.999999H158.883L165.843 10.04V0.999999H168.563V15H166.003L158.863 5.64V15H156.123ZM171.503 15V0.999999H174.403V7.26L180.523 0.999999H184.063L177.263 7.66L184.383 15H180.503L174.403 8.5V15H171.503Z" fill="#1C2027"/>
</svg>
