<svg width="1920" height="458" viewBox="0 0 1920 458" fill="none" xmlns="http://www.w3.org/2000/svg">
<ellipse cx="1625.88" cy="501.716" rx="255.5" ry="691.945" transform="rotate(40.2037 1625.88 501.716)" fill="#D2BCFF" fill-opacity="0.75"/>
<circle cx="42.5" cy="220.5" r="255.5" fill="#AFE638" fill-opacity="0.75"/>
<g filter="url(#filter0_b_318_695)">
<path d="M-1 -1H1919V458H-1V-1Z" fill="white" fill-opacity="0.05"/>
<path d="M-1 -1H1919V458H-1V-1Z" fill="url(#paint0_linear_318_695)" fill-opacity="0.2"/>
</g>
<path d="M1476.48 94.4787C1477.28 93.7211 1478.54 94.6289 1478.08 95.6284L1472.8 106.931C1472.63 107.288 1472.69 107.71 1472.95 108.008L1480.64 116.906C1481.33 117.704 1480.48 118.887 1479.5 118.484L1468.64 113.987C1468.27 113.836 1467.85 113.913 1467.57 114.184L1458.5 122.751C1457.7 123.509 1456.44 122.601 1456.91 121.602L1462.18 110.299C1462.35 109.942 1462.29 109.52 1462.03 109.222L1454.34 100.324C1453.65 99.5263 1454.51 98.3427 1455.48 98.7458L1466.35 103.243C1466.71 103.394 1467.13 103.317 1467.42 103.046L1476.48 94.4787Z" fill="#5E1EE5"/>
<path d="M1517.98 260.365C1517.54 258.137 1520.57 257.02 1521.69 258.996L1573.47 350.647C1574.33 352.182 1576.62 351.925 1577.12 350.234L1607.19 249.353C1607.84 247.178 1611.04 247.594 1611.11 249.863L1614.36 355.079C1614.42 356.842 1616.56 357.676 1617.8 356.413L1691.3 281.061C1692.89 279.436 1695.52 281.29 1694.53 283.332L1648.52 378.009C1647.75 379.596 1649.26 381.331 1650.94 380.786L1751.04 348.224C1753.2 347.522 1754.67 350.389 1752.85 351.736L1668.1 414.186C1666.68 415.232 1667.22 417.471 1668.95 417.768L1772.72 435.456C1774.96 435.838 1774.93 439.061 1772.69 439.405L1668.63 455.321C1666.89 455.587 1666.32 457.817 1667.72 458.887L1751.39 522.774C1753.19 524.151 1751.67 526.993 1749.52 526.254L1649.99 491.99C1648.32 491.416 1646.78 493.125 1647.52 494.724L1691.91 590.173C1692.87 592.232 1690.2 594.04 1688.65 592.388L1616.44 515.793C1615.23 514.51 1613.07 515.307 1612.98 517.069L1607.93 622.214C1607.82 624.482 1604.62 624.843 1604.01 622.657L1575.67 521.278C1575.19 519.579 1572.91 519.282 1572.01 520.803L1518.68 611.557C1517.53 613.514 1514.52 612.345 1515 610.125L1537.02 507.187C1537.38 505.462 1535.5 504.139 1534 505.07L1444.6 560.642C1442.67 561.84 1440.56 559.409 1442.01 557.664L1509.34 476.749C1510.47 475.393 1509.42 473.346 1507.66 473.475L1402.67 481.134C1400.41 481.299 1399.66 478.162 1401.76 477.292L1498.98 436.936C1500.61 436.26 1500.63 433.959 1499.01 433.255L1402.49 391.247C1400.41 390.341 1401.21 387.218 1403.47 387.421L1508.31 396.87C1510.07 397.028 1511.16 395 1510.05 393.625L1444.11 311.573C1442.69 309.804 1444.84 307.409 1446.75 308.64L1535.19 365.729C1536.67 366.686 1538.58 365.395 1538.24 363.664L1517.98 260.365Z" fill="#C4A8FF"/>
<defs>
<filter id="filter0_b_318_695" x="-151" y="-151" width="2220" height="759" filterUnits="userSpaceOnUse" color-interpolation-filters="sRGB">
<feFlood flood-opacity="0" result="BackgroundImageFix"/>
<feGaussianBlur in="BackgroundImageFix" stdDeviation="75"/>
<feComposite in2="SourceAlpha" operator="in" result="effect1_backgroundBlur_318_695"/>
<feBlend mode="normal" in="SourceGraphic" in2="effect1_backgroundBlur_318_695" result="shape"/>
</filter>
<linearGradient id="paint0_linear_318_695" x1="959" y1="458" x2="959" y2="-1" gradientUnits="userSpaceOnUse">
<stop stop-color="#5E1EE5"/>
<stop offset="1" stop-color="#AFE638"/>
</linearGradient>
</defs>
</svg>
