<svg width="93" height="16" viewBox="0 0 93 16" fill="none" xmlns="http://www.w3.org/2000/svg">
<path d="M8.14 15.2581C7.12667 15.2581 6.18 15.0781 5.3 14.7181C4.42 14.3448 3.64667 13.8314 2.98 13.1781C2.31333 12.5114 1.79333 11.7448 1.42 10.8781C1.06 9.99809 0.88 9.05142 0.88 8.03809C0.88 7.02475 1.06 6.08475 1.42 5.21809C1.79333 4.33809 2.31333 3.57142 2.98 2.91809C3.64667 2.25142 4.42 1.73809 5.3 1.37809C6.18 1.00475 7.12667 0.818085 8.14 0.818085C8.87333 0.818085 9.57333 0.911419 10.24 1.09809C10.92 1.27142 11.5467 1.53142 12.12 1.87808C12.7067 2.21142 13.2267 2.62475 13.68 3.11809L12.66 4.19808C12.1133 3.57142 11.44 3.09142 10.64 2.75809C9.84 2.41142 9.00667 2.23809 8.14 2.23809C7.32667 2.23809 6.57333 2.38475 5.88 2.67809C5.18667 2.97142 4.58 3.38475 4.06 3.91808C3.55333 4.43809 3.15333 5.05142 2.86 5.75809C2.58 6.45142 2.44 7.21142 2.44 8.03809C2.44 8.85142 2.58 9.61142 2.86 10.3181C3.15333 11.0248 3.56 11.6448 4.08 12.1781C4.6 12.6981 5.20667 13.1048 5.9 13.3981C6.60667 13.6914 7.36667 13.8381 8.18 13.8381C9.04667 13.8381 9.87333 13.6714 10.66 13.3381C11.4467 12.9914 12.1067 12.5181 12.64 11.9181L13.64 12.9581C13.1733 13.4381 12.6467 13.8514 12.06 14.1981C11.4867 14.5448 10.8667 14.8114 10.2 14.9981C9.53333 15.1714 8.84667 15.2581 8.14 15.2581ZM14.9136 15.0381L20.7136 1.03808H22.5736L28.3336 15.0381H26.6536L24.8936 10.6381H18.2936L16.5136 15.0381H14.9136ZM18.8336 9.31809H24.3536L21.5936 2.45809L18.8336 9.31809ZM30.3478 15.0381V1.03808H36.3478C37.2678 1.03808 38.0678 1.20475 38.7478 1.53809C39.4278 1.87142 39.9545 2.33809 40.3278 2.93809C40.7145 3.53809 40.9078 4.24475 40.9078 5.05809C40.9078 5.97809 40.6345 6.77142 40.0878 7.43809C39.5545 8.09142 38.8345 8.55142 37.9278 8.81809L41.0678 15.0381H39.3678L36.3678 9.01809H31.8878V15.0381H30.3478ZM31.8878 7.71809H36.2478C37.1945 7.71809 37.9478 7.47809 38.5078 6.99809C39.0811 6.51809 39.3678 5.87142 39.3678 5.05809C39.3678 4.25809 39.0811 3.61809 38.5078 3.13809C37.9478 2.65809 37.1945 2.41809 36.2478 2.41809H31.8878V7.71809ZM43.6384 15.0381V1.03808H53.6584V2.39809H45.1784V7.29809H50.7184V8.63809H45.1784V13.6781H53.7384V15.0381H43.6384ZM56.3627 15.0381V1.03808H66.3827V2.39809H57.9027V7.29809H63.4427V8.63809H57.9027V13.6781H66.4627V15.0381H56.3627ZM69.0869 15.0381V1.03808H75.0869C76.0069 1.03808 76.8069 1.20475 77.4869 1.53809C78.1669 1.87142 78.6935 2.33809 79.0669 2.93809C79.4535 3.53809 79.6469 4.24475 79.6469 5.05809C79.6469 5.97809 79.3735 6.77142 78.8269 7.43809C78.2935 8.09142 77.5735 8.55142 76.6669 8.81809L79.8069 15.0381H78.1069L75.1069 9.01809H70.6269V15.0381H69.0869ZM70.6269 7.71809H74.9869C75.9335 7.71809 76.6869 7.47809 77.2469 6.99809C77.8202 6.51809 78.1069 5.87142 78.1069 5.05809C78.1069 4.25809 77.8202 3.61809 77.2469 3.13809C76.6869 2.65809 75.9335 2.41809 74.9869 2.41809H70.6269V7.71809ZM86.9175 15.2381C85.8108 15.2381 84.7508 15.0181 83.7375 14.5781C82.7242 14.1248 81.8308 13.4781 81.0575 12.6381L82.0775 11.5781C82.7975 12.3514 83.5642 12.9314 84.3775 13.3181C85.2042 13.7048 86.0708 13.8981 86.9775 13.8981C87.7108 13.8981 88.3575 13.7848 88.9175 13.5581C89.4908 13.3181 89.9375 12.9914 90.2575 12.5781C90.5775 12.1514 90.7375 11.6714 90.7375 11.1381C90.7375 10.4181 90.4842 9.86475 89.9775 9.47809C89.4842 9.09142 88.6642 8.80475 87.5175 8.61809L85.4975 8.29809C84.1508 8.07142 83.1575 7.67142 82.5175 7.09809C81.8775 6.52475 81.5575 5.74475 81.5575 4.75809C81.5575 3.98475 81.7642 3.30475 82.1775 2.71808C82.5908 2.13142 83.1642 1.67809 83.8975 1.35809C84.6442 1.02475 85.5042 0.858085 86.4775 0.858085C87.4642 0.858085 88.4308 1.01808 89.3775 1.33808C90.3375 1.65809 91.2108 2.11809 91.9975 2.71808L91.1175 3.91808C89.5842 2.75809 88.0175 2.17809 86.4175 2.17809C85.7508 2.17809 85.1642 2.28475 84.6575 2.49809C84.1508 2.69809 83.7575 2.98475 83.4775 3.35808C83.1975 3.71809 83.0575 4.14475 83.0575 4.63809C83.0575 5.29142 83.2775 5.79142 83.7175 6.13809C84.1575 6.48475 84.8842 6.73809 85.8975 6.89809L87.8975 7.21809C89.4308 7.47142 90.5442 7.90475 91.2375 8.51809C91.9308 9.11809 92.2775 9.96475 92.2775 11.0581C92.2775 11.8714 92.0508 12.5981 91.5975 13.2381C91.1442 13.8648 90.5108 14.3581 89.6975 14.7181C88.8975 15.0648 87.9708 15.2381 86.9175 15.2381Z" fill="#55585D"/>
</svg>
