<svg width="240" height="15" viewBox="0 0 240 15" fill="none" xmlns="http://www.w3.org/2000/svg">
<path d="M8.14 14.9187C7.12667 14.9187 6.18 14.7387 5.3 14.3787C4.42 14.0054 3.64667 13.4921 2.98 12.8387C2.31333 12.1721 1.79333 11.4054 1.42 10.5387C1.06 9.65873 0.88 8.71206 0.88 7.69873C0.88 6.6854 1.06 5.7454 1.42 4.87873C1.79333 3.99873 2.31333 3.23206 2.98 2.57873C3.64667 1.91206 4.42 1.39873 5.3 1.03873C6.18 0.665397 7.12667 0.47873 8.14 0.47873C8.87333 0.47873 9.57333 0.572063 10.24 0.75873C10.92 0.932063 11.5467 1.19206 12.12 1.53873C12.7067 1.87206 13.2267 2.2854 13.68 2.77873L12.66 3.85873C12.1133 3.23206 11.44 2.75206 10.64 2.41873C9.84 2.07206 9.00667 1.89873 8.14 1.89873C7.32667 1.89873 6.57333 2.0454 5.88 2.33873C5.18667 2.63206 4.58 3.0454 4.06 3.57873C3.55333 4.09873 3.15333 4.71206 2.86 5.41873C2.58 6.11206 2.44 6.87206 2.44 7.69873C2.44 8.51206 2.58 9.27206 2.86 9.97873C3.15333 10.6854 3.56 11.3054 4.08 11.8387C4.6 12.3587 5.20667 12.7654 5.9 13.0587C6.60667 13.3521 7.36667 13.4987 8.18 13.4987C9.04667 13.4987 9.87333 13.3321 10.66 12.9987C11.4467 12.6521 12.1067 12.1787 12.64 11.5787L13.64 12.6187C13.1733 13.0987 12.6467 13.5121 12.06 13.8587C11.4867 14.2054 10.8667 14.4721 10.2 14.6587C9.53333 14.8321 8.84667 14.9187 8.14 14.9187ZM22.6406 14.9187C21.6273 14.9187 20.6806 14.7387 19.8006 14.3787C18.934 14.0054 18.1673 13.4921 17.5006 12.8387C16.8473 12.1721 16.334 11.4054 15.9606 10.5387C15.6006 9.65873 15.4206 8.71206 15.4206 7.69873C15.4206 6.6854 15.6006 5.7454 15.9606 4.87873C16.334 3.99873 16.8473 3.23206 17.5006 2.57873C18.1673 1.91206 18.934 1.39873 19.8006 1.03873C20.6806 0.665397 21.6273 0.47873 22.6406 0.47873C23.6406 0.47873 24.574 0.665397 25.4406 1.03873C26.3206 1.39873 27.0873 1.91206 27.7406 2.57873C28.4073 3.23206 28.9206 3.99873 29.2806 4.87873C29.654 5.7454 29.8406 6.6854 29.8406 7.69873C29.8406 8.71206 29.654 9.65873 29.2806 10.5387C28.9206 11.4054 28.4073 12.1721 27.7406 12.8387C27.0873 13.4921 26.3206 14.0054 25.4406 14.3787C24.574 14.7387 23.6406 14.9187 22.6406 14.9187ZM22.6406 13.4987C23.4406 13.4987 24.1806 13.3521 24.8606 13.0587C25.5406 12.7654 26.134 12.3587 26.6406 11.8387C27.1606 11.3054 27.5606 10.6854 27.8406 9.97873C28.134 9.27206 28.2806 8.51206 28.2806 7.69873C28.2806 6.87206 28.134 6.11206 27.8406 5.41873C27.5606 4.71206 27.1606 4.09873 26.6406 3.57873C26.134 3.0454 25.5406 2.63206 24.8606 2.33873C24.1806 2.0454 23.4406 1.89873 22.6406 1.89873C21.8406 1.89873 21.094 2.0454 20.4006 2.33873C19.7206 2.63206 19.1206 3.0454 18.6006 3.57873C18.094 4.09873 17.694 4.71206 17.4006 5.41873C17.1206 6.11206 16.9806 6.8654 16.9806 7.67873C16.9806 8.5054 17.1206 9.27206 17.4006 9.97873C17.694 10.6854 18.094 11.3054 18.6006 11.8387C19.1206 12.3587 19.7206 12.7654 20.4006 13.0587C21.094 13.3521 21.8406 13.4987 22.6406 13.4987ZM32.6525 14.6987V0.69873H34.1925L42.6125 12.0587V0.69873H44.0725V14.6987H42.7125L34.1125 3.03873V14.6987H32.6525ZM51.4047 14.6987V2.07873H46.3447V0.69873H58.0047V2.07873H52.9447V14.6987H51.4047ZM56.3284 14.6987L62.1284 0.69873H63.9884L69.7484 14.6987H68.0684L66.3084 10.2987H59.7084L57.9284 14.6987H56.3284ZM60.2484 8.97873H65.7684L63.0084 2.11873L60.2484 8.97873ZM77.6595 14.9187C76.6462 14.9187 75.6995 14.7387 74.8195 14.3787C73.9395 14.0054 73.1662 13.4921 72.4995 12.8387C71.8329 12.1721 71.3129 11.4054 70.9395 10.5387C70.5795 9.65873 70.3995 8.71206 70.3995 7.69873C70.3995 6.6854 70.5795 5.7454 70.9395 4.87873C71.3129 3.99873 71.8329 3.23206 72.4995 2.57873C73.1662 1.91206 73.9395 1.39873 74.8195 1.03873C75.6995 0.665397 76.6462 0.47873 77.6595 0.47873C78.3929 0.47873 79.0929 0.572063 79.7595 0.75873C80.4395 0.932063 81.0662 1.19206 81.6395 1.53873C82.2262 1.87206 82.7462 2.2854 83.1995 2.77873L82.1795 3.85873C81.6329 3.23206 80.9595 2.75206 80.1595 2.41873C79.3595 2.07206 78.5262 1.89873 77.6595 1.89873C76.8462 1.89873 76.0929 2.0454 75.3995 2.33873C74.7062 2.63206 74.0995 3.0454 73.5795 3.57873C73.0729 4.09873 72.6729 4.71206 72.3795 5.41873C72.0995 6.11206 71.9595 6.87206 71.9595 7.69873C71.9595 8.51206 72.0995 9.27206 72.3795 9.97873C72.6729 10.6854 73.0795 11.3054 73.5995 11.8387C74.1195 12.3587 74.7262 12.7654 75.4195 13.0587C76.1262 13.3521 76.8862 13.4987 77.6995 13.4987C78.5662 13.4987 79.3929 13.3321 80.1795 12.9987C80.9662 12.6521 81.6262 12.1787 82.1595 11.5787L83.1595 12.6187C82.6929 13.0987 82.1662 13.5121 81.5795 13.8587C81.0062 14.2054 80.3862 14.4721 79.7195 14.6587C79.0529 14.8321 78.3662 14.9187 77.6595 14.9187ZM89.9484 14.6987V2.07873H84.8884V0.69873H96.5484V2.07873H91.4884V14.6987H89.9484ZM103.529 14.6987V0.69873H105.069V14.6987H103.529ZM108.558 14.6987V0.69873H110.098L118.518 12.0587V0.69873H119.978V14.6987H118.618L110.018 3.03873V14.6987H108.558ZM123.45 14.6987V0.69873H133.47V2.05873H124.99V7.05873H130.55V8.39873H124.99V14.6987H123.45ZM141.66 14.9187C140.647 14.9187 139.7 14.7387 138.82 14.3787C137.953 14.0054 137.187 13.4921 136.52 12.8387C135.867 12.1721 135.353 11.4054 134.98 10.5387C134.62 9.65873 134.44 8.71206 134.44 7.69873C134.44 6.6854 134.62 5.7454 134.98 4.87873C135.353 3.99873 135.867 3.23206 136.52 2.57873C137.187 1.91206 137.953 1.39873 138.82 1.03873C139.7 0.665397 140.647 0.47873 141.66 0.47873C142.66 0.47873 143.593 0.665397 144.46 1.03873C145.34 1.39873 146.107 1.91206 146.76 2.57873C147.427 3.23206 147.94 3.99873 148.3 4.87873C148.673 5.7454 148.86 6.6854 148.86 7.69873C148.86 8.71206 148.673 9.65873 148.3 10.5387C147.94 11.4054 147.427 12.1721 146.76 12.8387C146.107 13.4921 145.34 14.0054 144.46 14.3787C143.593 14.7387 142.66 14.9187 141.66 14.9187ZM141.66 13.4987C142.46 13.4987 143.2 13.3521 143.88 13.0587C144.56 12.7654 145.153 12.3587 145.66 11.8387C146.18 11.3054 146.58 10.6854 146.86 9.97873C147.153 9.27206 147.3 8.51206 147.3 7.69873C147.3 6.87206 147.153 6.11206 146.86 5.41873C146.58 4.71206 146.18 4.09873 145.66 3.57873C145.153 3.0454 144.56 2.63206 143.88 2.33873C143.2 2.0454 142.46 1.89873 141.66 1.89873C140.86 1.89873 140.113 2.0454 139.42 2.33873C138.74 2.63206 138.14 3.0454 137.62 3.57873C137.113 4.09873 136.713 4.71206 136.42 5.41873C136.14 6.11206 136 6.8654 136 7.67873C136 8.5054 136.14 9.27206 136.42 9.97873C136.713 10.6854 137.113 11.3054 137.62 11.8387C138.14 12.3587 138.74 12.7654 139.42 13.0587C140.113 13.3521 140.86 13.4987 141.66 13.4987ZM151.672 14.6987V0.69873H157.672C158.592 0.69873 159.392 0.865396 160.072 1.19873C160.752 1.53206 161.279 1.99873 161.652 2.59873C162.039 3.19873 162.232 3.9054 162.232 4.71873C162.232 5.63873 161.959 6.43206 161.412 7.09873C160.879 7.75206 160.159 8.21206 159.252 8.47873L162.392 14.6987H160.692L157.692 8.67873H153.212V14.6987H151.672ZM153.212 7.37873H157.572C158.519 7.37873 159.272 7.13873 159.832 6.65873C160.405 6.17873 160.692 5.53206 160.692 4.71873C160.692 3.91873 160.405 3.27873 159.832 2.79873C159.272 2.31873 158.519 2.07873 157.572 2.07873H153.212V7.37873ZM164.963 14.6987V0.69873H167.123L171.903 10.6387L176.663 0.69873H178.823V14.6987H177.363V2.45873L171.883 13.6987L166.403 2.47873V14.6987H164.963ZM180.836 14.6987L186.636 0.69873H188.496L194.256 14.6987H192.576L190.816 10.2987H184.216L182.436 14.6987H180.836ZM184.756 8.97873H190.276L187.516 2.11873L184.756 8.97873ZM197.63 14.6987V2.07873H192.57V0.69873H204.23V2.07873H199.17V14.6987H197.63ZM206.514 14.6987V0.69873H208.054V14.6987H206.514ZM218.103 14.9187C217.09 14.9187 216.143 14.7387 215.263 14.3787C214.396 14.0054 213.63 13.4921 212.963 12.8387C212.31 12.1721 211.796 11.4054 211.423 10.5387C211.063 9.65873 210.883 8.71206 210.883 7.69873C210.883 6.6854 211.063 5.7454 211.423 4.87873C211.796 3.99873 212.31 3.23206 212.963 2.57873C213.63 1.91206 214.396 1.39873 215.263 1.03873C216.143 0.665397 217.09 0.47873 218.103 0.47873C219.103 0.47873 220.036 0.665397 220.903 1.03873C221.783 1.39873 222.55 1.91206 223.203 2.57873C223.87 3.23206 224.383 3.99873 224.743 4.87873C225.116 5.7454 225.303 6.6854 225.303 7.69873C225.303 8.71206 225.116 9.65873 224.743 10.5387C224.383 11.4054 223.87 12.1721 223.203 12.8387C222.55 13.4921 221.783 14.0054 220.903 14.3787C220.036 14.7387 219.103 14.9187 218.103 14.9187ZM218.103 13.4987C218.903 13.4987 219.643 13.3521 220.323 13.0587C221.003 12.7654 221.596 12.3587 222.103 11.8387C222.623 11.3054 223.023 10.6854 223.303 9.97873C223.596 9.27206 223.743 8.51206 223.743 7.69873C223.743 6.87206 223.596 6.11206 223.303 5.41873C223.023 4.71206 222.623 4.09873 222.103 3.57873C221.596 3.0454 221.003 2.63206 220.323 2.33873C219.643 2.0454 218.903 1.89873 218.103 1.89873C217.303 1.89873 216.556 2.0454 215.863 2.33873C215.183 2.63206 214.583 3.0454 214.063 3.57873C213.556 4.09873 213.156 4.71206 212.863 5.41873C212.583 6.11206 212.443 6.8654 212.443 7.67873C212.443 8.5054 212.583 9.27206 212.863 9.97873C213.156 10.6854 213.556 11.3054 214.063 11.8387C214.583 12.3587 215.183 12.7654 215.863 13.0587C216.556 13.3521 217.303 13.4987 218.103 13.4987ZM228.115 14.6987V0.69873H229.655L238.075 12.0587V0.69873H239.535V14.6987H238.175L229.575 3.03873V14.6987H228.115Z" fill="#55585D"/>
</svg>
