<svg width="38" height="16" viewBox="0 0 38 16" fill="none" xmlns="http://www.w3.org/2000/svg">
<path d="M0.54 14.6987V0.69873H10.56V2.05873H2.08V7.05873H7.64V8.39873H2.08V14.6987H0.54ZM9.12844 14.6987L14.9284 0.69873H16.7884L22.5484 14.6987H20.8684L19.1084 10.2987H12.5084L10.7284 14.6987H9.12844ZM13.0484 8.97873H18.5684L15.8084 2.11873L13.0484 8.97873ZM35.2195 15.0187L34.2395 13.8387C33.6929 14.1721 33.0929 14.4387 32.4395 14.6387C31.7995 14.8254 31.1262 14.9187 30.4195 14.9187C29.4062 14.9187 28.4595 14.7387 27.5795 14.3787C26.7129 14.0054 25.9462 13.4921 25.2795 12.8387C24.6262 12.1721 24.1129 11.4054 23.7395 10.5387C23.3795 9.65873 23.1995 8.71206 23.1995 7.69873C23.1995 6.6854 23.3795 5.7454 23.7395 4.87873C24.1129 3.99873 24.6262 3.23206 25.2795 2.57873C25.9462 1.91206 26.7129 1.39873 27.5795 1.03873C28.4595 0.665397 29.4062 0.47873 30.4195 0.47873C31.4195 0.47873 32.3529 0.665397 33.2195 1.03873C34.0995 1.39873 34.8662 1.91206 35.5195 2.57873C36.1862 3.23206 36.6995 3.99873 37.0595 4.87873C37.4329 5.7454 37.6195 6.6854 37.6195 7.69873C37.6195 8.75206 37.4129 9.73873 36.9995 10.6587C36.5862 11.5787 36.0262 12.3654 35.3195 13.0187L36.7995 14.7987L35.2195 15.0187ZM30.4195 13.4987C30.9529 13.4987 31.4595 13.4321 31.9395 13.2987C32.4195 13.1654 32.8662 12.9721 33.2795 12.7187L31.2795 10.3387L32.8595 10.0987L34.3595 11.8987C34.8929 11.3654 35.3062 10.7387 35.5995 10.0187C35.9062 9.29873 36.0595 8.5254 36.0595 7.69873C36.0595 6.87206 35.9129 6.11206 35.6195 5.41873C35.3395 4.71206 34.9395 4.09873 34.4195 3.57873C33.9129 3.0454 33.3195 2.63206 32.6395 2.33873C31.9595 2.0454 31.2195 1.89873 30.4195 1.89873C29.6195 1.89873 28.8729 2.0454 28.1795 2.33873C27.4995 2.63206 26.8995 3.0454 26.3795 3.57873C25.8729 4.09873 25.4729 4.71206 25.1795 5.41873C24.8995 6.11206 24.7595 6.87206 24.7595 7.69873C24.7595 8.51206 24.8995 9.27206 25.1795 9.97873C25.4729 10.6854 25.8729 11.3054 26.3795 11.8387C26.8995 12.3587 27.4995 12.7654 28.1795 13.0587C28.8729 13.3521 29.6195 13.4987 30.4195 13.4987Z" fill="#55585D"/>
</svg>
