<svg width="235" height="15" viewBox="0 0 235 15" fill="none" xmlns="http://www.w3.org/2000/svg">
<path d="M8.1 14.5882C7.08667 14.5882 6.14 14.4082 5.26 14.0482C4.39333 13.6748 3.62667 13.1615 2.96 12.5082C2.30667 11.8415 1.79333 11.0748 1.42 10.2082C1.06 9.32816 0.88 8.3815 0.88 7.36816C0.88 6.35483 1.06 5.41483 1.42 4.54816C1.79333 3.66816 2.30667 2.9015 2.96 2.24816C3.62667 1.5815 4.39333 1.06816 5.26 0.708163C6.14 0.33483 7.08667 0.148164 8.1 0.148164C9.1 0.148164 10.0333 0.33483 10.9 0.708163C11.78 1.06816 12.5467 1.5815 13.2 2.24816C13.8667 2.9015 14.38 3.66816 14.74 4.54816C15.1133 5.41483 15.3 6.35483 15.3 7.36816C15.3 8.3815 15.1133 9.32816 14.74 10.2082C14.38 11.0748 13.8667 11.8415 13.2 12.5082C12.5467 13.1615 11.78 13.6748 10.9 14.0482C10.0333 14.4082 9.1 14.5882 8.1 14.5882ZM8.1 13.1682C8.9 13.1682 9.64 13.0215 10.32 12.7282C11 12.4348 11.5933 12.0282 12.1 11.5082C12.62 10.9748 13.02 10.3548 13.3 9.64816C13.5933 8.9415 13.74 8.1815 13.74 7.36816C13.74 6.5415 13.5933 5.7815 13.3 5.08816C13.02 4.3815 12.62 3.76816 12.1 3.24816C11.5933 2.71483 11 2.3015 10.32 2.00816C9.64 1.71483 8.9 1.56816 8.1 1.56816C7.3 1.56816 6.55333 1.71483 5.86 2.00816C5.18 2.3015 4.58 2.71483 4.06 3.24816C3.55333 3.76816 3.15333 4.3815 2.86 5.08816C2.58 5.7815 2.44 6.53483 2.44 7.34816C2.44 8.17483 2.58 8.9415 2.86 9.64816C3.15333 10.3548 3.55333 10.9748 4.06 11.5082C4.58 12.0282 5.18 12.4348 5.86 12.7282C6.55333 13.0215 7.3 13.1682 8.1 13.1682ZM18.1119 14.3682V0.368163H19.6519L28.0719 11.7282V0.368163H29.5319V14.3682H28.1719L19.5719 2.70816V14.3682H18.1119ZM33.0041 14.3682V0.368163H34.5441V12.9882H42.8841V14.3682H33.0041ZM45.4744 14.3682V0.368163H47.0144V14.3682H45.4744ZM50.5033 14.3682V0.368163H52.0433L60.4633 11.7282V0.368163H61.9233V14.3682H60.5633L51.9633 2.70816V14.3682H50.5033ZM65.3955 14.3682V0.368163H75.4155V1.72816H66.9355V6.62816H72.4755V7.96816H66.9355V13.0082H75.4955V14.3682H65.3955ZM87.3566 14.5682C86.2499 14.5682 85.1899 14.3482 84.1766 13.9082C83.1632 13.4548 82.2699 12.8082 81.4966 11.9682L82.5166 10.9082C83.2366 11.6815 84.0032 12.2615 84.8166 12.6482C85.6432 13.0348 86.5099 13.2282 87.4166 13.2282C88.1499 13.2282 88.7966 13.1148 89.3566 12.8882C89.9299 12.6482 90.3766 12.3215 90.6966 11.9082C91.0166 11.4815 91.1766 11.0015 91.1766 10.4682C91.1766 9.74816 90.9232 9.19483 90.4166 8.80816C89.9232 8.4215 89.1032 8.13483 87.9566 7.94816L85.9366 7.62816C84.5899 7.4015 83.5966 7.0015 82.9566 6.42816C82.3166 5.85483 81.9966 5.07483 81.9966 4.08816C81.9966 3.31483 82.2032 2.63483 82.6166 2.04816C83.0299 1.4615 83.6032 1.00816 84.3366 0.688164C85.0832 0.35483 85.9432 0.188163 86.9166 0.188163C87.9032 0.188163 88.8699 0.348163 89.8166 0.668163C90.7766 0.988163 91.6499 1.44816 92.4366 2.04816L91.5566 3.24816C90.0232 2.08816 88.4566 1.50816 86.8566 1.50816C86.1899 1.50816 85.6032 1.61483 85.0966 1.82816C84.5899 2.02816 84.1966 2.31483 83.9166 2.68816C83.6366 3.04816 83.4966 3.47483 83.4966 3.96816C83.4966 4.6215 83.7166 5.1215 84.1566 5.46816C84.5966 5.81483 85.3232 6.06816 86.3366 6.22816L88.3366 6.54816C89.8699 6.8015 90.9832 7.23483 91.6766 7.84816C92.3699 8.44816 92.7166 9.29483 92.7166 10.3882C92.7166 11.2015 92.4899 11.9282 92.0366 12.5682C91.5832 13.1948 90.9499 13.6882 90.1366 14.0482C89.3366 14.3948 88.4099 14.5682 87.3566 14.5682ZM100.709 14.5882C99.5221 14.5882 98.4954 14.3415 97.6287 13.8482C96.7621 13.3415 96.0954 12.6282 95.6287 11.7082C95.1621 10.7882 94.9287 9.7015 94.9287 8.44816V0.368163H96.4687V8.44816C96.4687 9.40816 96.6421 10.2415 96.9887 10.9482C97.3354 11.6548 97.8287 12.2015 98.4687 12.5882C99.1087 12.9748 99.8554 13.1682 100.709 13.1682C101.575 13.1682 102.322 12.9748 102.949 12.5882C103.589 12.2015 104.082 11.6548 104.429 10.9482C104.775 10.2415 104.949 9.40816 104.949 8.44816V0.368163H106.489V8.44816C106.489 9.7015 106.249 10.7882 105.769 11.7082C105.302 12.6282 104.635 13.3415 103.769 13.8482C102.915 14.3415 101.895 14.5882 100.709 14.5882ZM109.691 14.3682V0.368163H115.771C116.691 0.368163 117.484 0.53483 118.151 0.868164C118.831 1.2015 119.357 1.67483 119.731 2.28816C120.104 2.88816 120.291 3.59483 120.291 4.40816C120.291 5.2215 120.104 5.93483 119.731 6.54816C119.357 7.14816 118.831 7.6215 118.151 7.96816C117.471 8.3015 116.677 8.46816 115.771 8.46816H111.231V14.3682H109.691ZM111.231 7.12816H115.651C116.597 7.12816 117.351 6.88816 117.911 6.40816C118.471 5.91483 118.751 5.25483 118.751 4.42816C118.751 3.6015 118.471 2.94816 117.911 2.46816C117.351 1.98816 116.597 1.74816 115.651 1.74816H111.231V7.12816ZM123.04 14.3682V0.368163H129.12C130.04 0.368163 130.833 0.53483 131.5 0.868164C132.18 1.2015 132.707 1.67483 133.08 2.28816C133.453 2.88816 133.64 3.59483 133.64 4.40816C133.64 5.2215 133.453 5.93483 133.08 6.54816C132.707 7.14816 132.18 7.6215 131.5 7.96816C130.82 8.3015 130.027 8.46816 129.12 8.46816H124.58V14.3682H123.04ZM124.58 7.12816H129C129.947 7.12816 130.7 6.88816 131.26 6.40816C131.82 5.91483 132.1 5.25483 132.1 4.42816C132.1 3.6015 131.82 2.94816 131.26 2.46816C130.7 1.98816 129.947 1.74816 129 1.74816H124.58V7.12816ZM142.949 14.5882C141.936 14.5882 140.989 14.4082 140.109 14.0482C139.243 13.6748 138.476 13.1615 137.809 12.5082C137.156 11.8415 136.643 11.0748 136.269 10.2082C135.909 9.32816 135.729 8.3815 135.729 7.36816C135.729 6.35483 135.909 5.41483 136.269 4.54816C136.643 3.66816 137.156 2.9015 137.809 2.24816C138.476 1.5815 139.243 1.06816 140.109 0.708163C140.989 0.33483 141.936 0.148164 142.949 0.148164C143.949 0.148164 144.883 0.33483 145.749 0.708163C146.629 1.06816 147.396 1.5815 148.049 2.24816C148.716 2.9015 149.229 3.66816 149.589 4.54816C149.963 5.41483 150.149 6.35483 150.149 7.36816C150.149 8.3815 149.963 9.32816 149.589 10.2082C149.229 11.0748 148.716 11.8415 148.049 12.5082C147.396 13.1615 146.629 13.6748 145.749 14.0482C144.883 14.4082 143.949 14.5882 142.949 14.5882ZM142.949 13.1682C143.749 13.1682 144.489 13.0215 145.169 12.7282C145.849 12.4348 146.443 12.0282 146.949 11.5082C147.469 10.9748 147.869 10.3548 148.149 9.64816C148.443 8.9415 148.589 8.1815 148.589 7.36816C148.589 6.5415 148.443 5.7815 148.149 5.08816C147.869 4.3815 147.469 3.76816 146.949 3.24816C146.443 2.71483 145.849 2.3015 145.169 2.00816C144.489 1.71483 143.749 1.56816 142.949 1.56816C142.149 1.56816 141.403 1.71483 140.709 2.00816C140.029 2.3015 139.429 2.71483 138.909 3.24816C138.403 3.76816 138.003 4.3815 137.709 5.08816C137.429 5.7815 137.289 6.53483 137.289 7.34816C137.289 8.17483 137.429 8.9415 137.709 9.64816C138.003 10.3548 138.403 10.9748 138.909 11.5082C139.429 12.0282 140.029 12.4348 140.709 12.7282C141.403 13.0215 142.149 13.1682 142.949 13.1682ZM152.961 14.3682V0.368163H158.961C159.881 0.368163 160.681 0.53483 161.361 0.868164C162.041 1.2015 162.568 1.66816 162.941 2.26816C163.328 2.86816 163.521 3.57483 163.521 4.38816C163.521 5.30816 163.248 6.1015 162.701 6.76816C162.168 7.4215 161.448 7.8815 160.541 8.14816L163.681 14.3682H161.981L158.981 8.34816H154.501V14.3682H152.961ZM154.501 7.04816H158.861C159.808 7.04816 160.561 6.80816 161.121 6.32816C161.694 5.84816 161.981 5.2015 161.981 4.38816C161.981 3.58816 161.694 2.94816 161.121 2.46816C160.561 1.98816 159.808 1.74816 158.861 1.74816H154.501V7.04816ZM169.604 14.3682V1.74816H164.544V0.368163H176.204V1.74816H171.144V14.3682H169.604ZM189.785 14.5882C188.771 14.5882 187.825 14.4082 186.945 14.0482C186.065 13.6748 185.291 13.1615 184.625 12.5082C183.958 11.8415 183.438 11.0748 183.065 10.2082C182.705 9.32816 182.525 8.3815 182.525 7.36816C182.525 6.35483 182.705 5.41483 183.065 4.54816C183.438 3.66816 183.958 2.9015 184.625 2.24816C185.291 1.5815 186.065 1.06816 186.945 0.708163C187.825 0.33483 188.771 0.148164 189.785 0.148164C190.518 0.148164 191.218 0.241497 191.885 0.428164C192.565 0.601497 193.191 0.861497 193.765 1.20816C194.351 1.5415 194.871 1.95483 195.325 2.44816L194.305 3.52816C193.758 2.9015 193.085 2.4215 192.285 2.08816C191.485 1.7415 190.651 1.56816 189.785 1.56816C188.971 1.56816 188.218 1.71483 187.525 2.00816C186.831 2.3015 186.225 2.71483 185.705 3.24816C185.198 3.76816 184.798 4.3815 184.505 5.08816C184.225 5.7815 184.085 6.5415 184.085 7.36816C184.085 8.1815 184.225 8.9415 184.505 9.64816C184.798 10.3548 185.205 10.9748 185.725 11.5082C186.245 12.0282 186.851 12.4348 187.545 12.7282C188.251 13.0215 189.011 13.1682 189.825 13.1682C190.691 13.1682 191.518 13.0015 192.305 12.6682C193.091 12.3215 193.751 11.8482 194.285 11.2482L195.285 12.2882C194.818 12.7682 194.291 13.1815 193.705 13.5282C193.131 13.8748 192.511 14.1415 191.845 14.3282C191.178 14.5015 190.491 14.5882 189.785 14.5882ZM198.018 14.3682V0.368163H199.558V6.62816H207.698V0.368163H209.238V14.3682H207.698V8.00816H199.558V14.3682H198.018ZM211.255 14.3682L217.055 0.368163H218.915L224.675 14.3682H222.995L221.235 9.96816H214.635L212.855 14.3682H211.255ZM215.175 8.64816H220.695L217.935 1.78816L215.175 8.64816ZM228.049 14.3682V1.74816H222.989V0.368163H234.649V1.74816H229.589V14.3682H228.049Z" fill="#55585D"/>
</svg>
