<svg width="200" height="16" viewBox="0 0 200 16" fill="none" xmlns="http://www.w3.org/2000/svg">
<path d="M8.12 15.22C7.08 15.22 6.11333 15.04 5.22 14.68C4.32667 14.3067 3.54 13.7933 2.86 13.14C2.19333 12.4733 1.66667 11.7067 1.28 10.84C0.906667 9.96 0.72 9.01333 0.72 8C0.72 6.98667 0.906667 6.04667 1.28 5.18C1.66667 4.3 2.19333 3.53333 2.86 2.88C3.54 2.21333 4.32667 1.7 5.22 1.34C6.11333 0.966666 7.08 0.779999 8.12 0.779999C9.16 0.779999 10.1267 0.966666 11.02 1.34C11.9267 1.7 12.7133 2.21333 13.38 2.88C14.06 3.53333 14.5867 4.3 14.96 5.18C15.3333 6.04667 15.52 6.98667 15.52 8C15.52 9.01333 15.3333 9.96 14.96 10.84C14.5867 11.7067 14.06 12.4733 13.38 13.14C12.7133 13.7933 11.9267 14.3067 11.02 14.68C10.1267 15.04 9.16 15.22 8.12 15.22ZM8.12 12.56C8.76 12.56 9.34667 12.4467 9.88 12.22C10.4133 11.98 10.88 11.66 11.28 11.26C11.68 10.8467 11.9933 10.36 12.22 9.8C12.4467 9.24 12.56 8.64 12.56 8C12.56 7.34667 12.4467 6.74667 12.22 6.2C11.9933 5.64 11.68 5.16 11.28 4.76C10.88 4.34667 10.4133 4.02667 9.88 3.8C9.34667 3.56 8.76 3.44 8.12 3.44C7.49333 3.44 6.91333 3.56 6.38 3.8C5.84667 4.02667 5.38 4.34667 4.98 4.76C4.58 5.16 4.26667 5.64 4.04 6.2C3.81333 6.74667 3.7 7.34 3.7 7.98C3.7 8.63333 3.81333 9.24 4.04 9.8C4.26667 10.36 4.58 10.8467 4.98 11.26C5.38 11.66 5.84667 11.98 6.38 12.22C6.91333 12.4467 7.49333 12.56 8.12 12.56ZM23.9095 15.2C22.6429 15.2 21.5429 14.9467 20.6095 14.44C19.6895 13.9333 18.9762 13.2133 18.4695 12.28C17.9629 11.3333 17.7095 10.2267 17.7095 8.96V0.999999H20.6095V8.96C20.6095 9.68 20.7429 10.3133 21.0095 10.86C21.2895 11.3933 21.6762 11.8067 22.1695 12.1C22.6762 12.38 23.2629 12.52 23.9295 12.52C24.5962 12.52 25.1762 12.38 25.6695 12.1C26.1629 11.8067 26.5429 11.3933 26.8095 10.86C27.0895 10.3133 27.2295 9.68 27.2295 8.96V0.999999H30.1095V8.96C30.1095 10.2133 29.8562 11.3133 29.3495 12.26C28.8429 13.1933 28.1229 13.92 27.1895 14.44C26.2695 14.9467 25.1762 15.2 23.9095 15.2ZM32.8217 15V0.999999H39.6617C40.6084 0.999999 41.4417 1.18667 42.1617 1.56C42.8951 1.92 43.4617 2.42667 43.8617 3.08C44.2751 3.73333 44.4817 4.48667 44.4817 5.34C44.4817 6.23333 44.2351 7.02 43.7417 7.7C43.2484 8.38 42.5884 8.88667 41.7617 9.22L44.8617 15H41.6217L38.8817 9.64H35.7217V15H32.8217ZM35.7217 7.26H39.4017C40.0551 7.26 40.5751 7.08667 40.9617 6.74C41.3617 6.39333 41.5617 5.94 41.5617 5.38C41.5617 4.82 41.3617 4.36667 40.9617 4.02C40.5751 3.67333 40.0551 3.5 39.4017 3.5H35.7217V7.26ZM56.2194 15.2C55.086 15.2 53.9794 14.9933 52.8994 14.58C51.8194 14.1533 50.8594 13.5533 50.0194 12.78L51.6794 10.7C52.4927 11.42 53.2727 11.94 54.0194 12.26C54.7794 12.58 55.5794 12.74 56.4194 12.74C57.006 12.74 57.5127 12.6733 57.9394 12.54C58.366 12.3933 58.6927 12.1867 58.9194 11.92C59.1594 11.6533 59.2794 11.34 59.2794 10.98C59.2794 10.5 59.106 10.1333 58.7594 9.88C58.4127 9.61333 57.8194 9.40667 56.9794 9.26L54.1994 8.78C53.0127 8.58 52.106 8.16 51.4794 7.52C50.866 6.88 50.5594 6.05333 50.5594 5.04C50.5594 4.17333 50.7794 3.42 51.2194 2.78C51.6727 2.14 52.306 1.65333 53.1194 1.32C53.946 0.973333 54.926 0.799999 56.0594 0.799999C57.086 0.799999 58.106 0.973333 59.1194 1.32C60.146 1.66667 61.0527 2.14667 61.8394 2.76L60.2794 4.92C58.8127 3.8 57.3394 3.24 55.8594 3.24C55.3394 3.24 54.886 3.30667 54.4994 3.44C54.1127 3.57333 53.8127 3.76 53.5994 4C53.3994 4.22667 53.2994 4.5 53.2994 4.82C53.2994 5.24667 53.4527 5.58 53.7594 5.82C54.066 6.04667 54.5794 6.22 55.2994 6.34L57.9394 6.78C59.3394 7.00667 60.386 7.45333 61.0794 8.12C61.7727 8.77333 62.1194 9.64 62.1194 10.72C62.1194 11.6267 61.8794 12.42 61.3994 13.1C60.9194 13.7667 60.2327 14.2867 59.3394 14.66C58.4594 15.02 57.4194 15.2 56.2194 15.2ZM71.0966 15.22C70.0566 15.22 69.0899 15.04 68.1966 14.68C67.3032 14.3067 66.5166 13.7933 65.8366 13.14C65.1699 12.4733 64.6432 11.7067 64.2566 10.84C63.8832 9.96 63.6966 9.01333 63.6966 8C63.6966 6.98667 63.8832 6.04667 64.2566 5.18C64.6432 4.3 65.1699 3.53333 65.8366 2.88C66.5166 2.21333 67.3032 1.7 68.1966 1.34C69.0899 0.966666 70.0566 0.779999 71.0966 0.779999C72.1366 0.779999 73.1032 0.966666 73.9966 1.34C74.9032 1.7 75.6899 2.21333 76.3566 2.88C77.0366 3.53333 77.5632 4.3 77.9366 5.18C78.3099 6.04667 78.4966 6.98667 78.4966 8C78.4966 9.01333 78.3099 9.96 77.9366 10.84C77.5632 11.7067 77.0366 12.4733 76.3566 13.14C75.6899 13.7933 74.9032 14.3067 73.9966 14.68C73.1032 15.04 72.1366 15.22 71.0966 15.22ZM71.0966 12.56C71.7366 12.56 72.3232 12.4467 72.8566 12.22C73.3899 11.98 73.8566 11.66 74.2566 11.26C74.6566 10.8467 74.9699 10.36 75.1966 9.8C75.4232 9.24 75.5366 8.64 75.5366 8C75.5366 7.34667 75.4232 6.74667 75.1966 6.2C74.9699 5.64 74.6566 5.16 74.2566 4.76C73.8566 4.34667 73.3899 4.02667 72.8566 3.8C72.3232 3.56 71.7366 3.44 71.0966 3.44C70.4699 3.44 69.8899 3.56 69.3566 3.8C68.8232 4.02667 68.3566 4.34667 67.9566 4.76C67.5566 5.16 67.2432 5.64 67.0166 6.2C66.7899 6.74667 66.6766 7.34 66.6766 7.98C66.6766 8.63333 66.7899 9.24 67.0166 9.8C67.2432 10.36 67.5566 10.8467 67.9566 11.26C68.3566 11.66 68.8232 11.98 69.3566 12.22C69.8899 12.4467 70.4699 12.56 71.0966 12.56ZM87.8061 15.2C86.7661 15.2 85.7928 15.02 84.8861 14.66C83.9794 14.2867 83.1861 13.7733 82.5061 13.12C81.8394 12.4667 81.3128 11.7067 80.9261 10.84C80.5528 9.96 80.3661 9.01333 80.3661 8C80.3661 6.97333 80.5528 6.02667 80.9261 5.16C81.3128 4.28 81.8461 3.51333 82.5261 2.86C83.2061 2.20667 83.9928 1.7 84.8861 1.34C85.7928 0.966666 86.7661 0.779999 87.8061 0.779999C88.5794 0.779999 89.3261 0.886666 90.0461 1.1C90.7661 1.31333 91.4328 1.61333 92.0461 2C92.6728 2.38667 93.2061 2.85333 93.6461 3.4L91.6861 5.34C91.1794 4.71333 90.5928 4.24 89.9261 3.92C89.2728 3.6 88.5661 3.44 87.8061 3.44C87.1794 3.44 86.5928 3.56 86.0461 3.8C85.4994 4.02667 85.0261 4.34667 84.6261 4.76C84.2261 5.16 83.9128 5.64 83.6861 6.2C83.4594 6.74667 83.3461 7.34667 83.3461 8C83.3461 8.64 83.4594 9.24 83.6861 9.8C83.9128 10.3467 84.2328 10.8267 84.6461 11.24C85.0594 11.64 85.5394 11.9533 86.0861 12.18C86.6461 12.4067 87.2528 12.52 87.9061 12.52C88.6394 12.52 89.3261 12.3667 89.9661 12.06C90.6061 11.7533 91.1728 11.3133 91.6661 10.74L93.5661 12.62C93.1261 13.1533 92.5994 13.6133 91.9861 14C91.3728 14.3867 90.7061 14.6867 89.9861 14.9C89.2794 15.1 88.5528 15.2 87.8061 15.2ZM95.6616 15V0.999999H98.5616V15H95.6616ZM100.171 15L105.931 0.999999H109.271L114.971 15H111.831L110.411 11.32H104.631L103.191 15H100.171ZM105.531 9H109.531L107.531 3.84L105.531 9ZM116.559 15V0.999999H119.459V12.44H127.119V15H116.559ZM133.941 15V0.999999H137.661L141.501 8.56L145.341 0.999999H149.061V15H146.321V4.7L141.461 14L136.621 4.66V15H133.941ZM151.978 15V0.999999H162.738V3.52H154.878V6.72H160.058V9.16H154.878V12.48H162.818V15H151.978ZM168.169 12.42H170.609C171.235 12.42 171.815 12.3133 172.349 12.1C172.895 11.8733 173.369 11.56 173.769 11.16C174.182 10.76 174.495 10.2933 174.709 9.76C174.935 9.22667 175.049 8.64667 175.049 8.02C175.049 7.39333 174.935 6.81333 174.709 6.28C174.482 5.73333 174.169 5.26 173.769 4.86C173.369 4.46 172.895 4.14667 172.349 3.92C171.815 3.69333 171.235 3.58 170.609 3.58H168.169V12.42ZM165.269 15V0.999999H170.649C171.702 0.999999 172.675 1.18 173.569 1.54C174.462 1.88667 175.242 2.38 175.909 3.02C176.575 3.66 177.095 4.40667 177.469 5.26C177.855 6.11333 178.049 7.03333 178.049 8.02C178.049 9.02 177.862 9.94 177.489 10.78C177.115 11.62 176.589 12.36 175.909 13C175.242 13.6267 174.462 14.12 173.569 14.48C172.675 14.8267 171.702 15 170.649 15H165.269ZM180.434 15V0.999999H183.334V15H180.434ZM184.943 15L190.703 0.999999H194.043L199.743 15H196.603L195.183 11.32H189.403L187.963 15H184.943ZM190.303 9H194.303L192.303 3.84L190.303 9Z" fill="#1C2027"/>
</svg>
