<svg width="98" height="15" viewBox="0 0 98 15" fill="none" xmlns="http://www.w3.org/2000/svg">
<path d="M6.08 14.5682C4.97333 14.5682 3.91333 14.3482 2.9 13.9082C1.88667 13.4548 0.993333 12.8082 0.22 11.9682L1.24 10.9082C1.96 11.6815 2.72667 12.2615 3.54 12.6482C4.36667 13.0348 5.23333 13.2282 6.14 13.2282C6.87333 13.2282 7.52 13.1148 8.08 12.8882C8.65333 12.6482 9.1 12.3215 9.42 11.9082C9.74 11.4815 9.9 11.0015 9.9 10.4682C9.9 9.74816 9.64667 9.19483 9.14 8.80816C8.64667 8.4215 7.82667 8.13483 6.68 7.94816L4.66 7.62816C3.31333 7.4015 2.32 7.0015 1.68 6.42816C1.04 5.85483 0.72 5.07483 0.72 4.08816C0.72 3.31483 0.926667 2.63483 1.34 2.04816C1.75333 1.4615 2.32667 1.00816 3.06 0.688164C3.80667 0.35483 4.66667 0.188163 5.64 0.188163C6.62667 0.188163 7.59333 0.348163 8.54 0.668163C9.5 0.988163 10.3733 1.44816 11.16 2.04816L10.28 3.24816C8.74667 2.08816 7.18 1.50816 5.58 1.50816C4.91333 1.50816 4.32667 1.61483 3.82 1.82816C3.31333 2.02816 2.92 2.31483 2.64 2.68816C2.36 3.04816 2.22 3.47483 2.22 3.96816C2.22 4.6215 2.44 5.1215 2.88 5.46816C3.32 5.81483 4.04667 6.06816 5.06 6.22816L7.06 6.54816C8.59333 6.8015 9.70667 7.23483 10.4 7.84816C11.0933 8.44816 11.44 9.29483 11.44 10.3882C11.44 11.2015 11.2133 11.9282 10.76 12.5682C10.3067 13.1948 9.67333 13.6882 8.86 14.0482C8.06 14.3948 7.13333 14.5682 6.08 14.5682ZM13.9322 14.3682V0.368163H23.9522V1.72816H15.4722V6.62816H21.0122V7.96816H15.4722V13.0082H24.0322V14.3682H13.9322ZM32.358 14.5882C31.3446 14.5882 30.398 14.4082 29.518 14.0482C28.638 13.6748 27.8646 13.1615 27.198 12.5082C26.5313 11.8415 26.0113 11.0748 25.638 10.2082C25.278 9.32816 25.098 8.3815 25.098 7.36816C25.098 6.35483 25.278 5.41483 25.638 4.54816C26.0113 3.66816 26.5313 2.9015 27.198 2.24816C27.8646 1.5815 28.638 1.06816 29.518 0.708163C30.398 0.33483 31.3446 0.148164 32.358 0.148164C33.0913 0.148164 33.7913 0.241497 34.458 0.428164C35.138 0.601497 35.7646 0.861497 36.338 1.20816C36.9246 1.5415 37.4446 1.95483 37.898 2.44816L36.878 3.52816C36.3313 2.9015 35.658 2.4215 34.858 2.08816C34.058 1.7415 33.2246 1.56816 32.358 1.56816C31.5446 1.56816 30.7913 1.71483 30.098 2.00816C29.4046 2.3015 28.798 2.71483 28.278 3.24816C27.7713 3.76816 27.3713 4.3815 27.078 5.08816C26.798 5.7815 26.658 6.5415 26.658 7.36816C26.658 8.1815 26.798 8.9415 27.078 9.64816C27.3713 10.3548 27.778 10.9748 28.298 11.5082C28.818 12.0282 29.4246 12.4348 30.118 12.7282C30.8246 13.0215 31.5846 13.1682 32.398 13.1682C33.2646 13.1682 34.0913 13.0015 34.878 12.6682C35.6646 12.3215 36.3246 11.8482 36.858 11.2482L37.858 12.2882C37.3913 12.7682 36.8646 13.1815 36.278 13.5282C35.7046 13.8748 35.0846 14.1415 34.418 14.3282C33.7513 14.5015 33.0646 14.5882 32.358 14.5882ZM46.0916 14.5882C44.9049 14.5882 43.8782 14.3415 43.0116 13.8482C42.1449 13.3415 41.4782 12.6282 41.0116 11.7082C40.5449 10.7882 40.3116 9.7015 40.3116 8.44816V0.368163H41.8516V8.44816C41.8516 9.40816 42.0249 10.2415 42.3716 10.9482C42.7182 11.6548 43.2116 12.2015 43.8516 12.5882C44.4916 12.9748 45.2382 13.1682 46.0916 13.1682C46.9582 13.1682 47.7049 12.9748 48.3316 12.5882C48.9716 12.2015 49.4649 11.6548 49.8116 10.9482C50.1582 10.2415 50.3316 9.40816 50.3316 8.44816V0.368163H51.8716V8.44816C51.8716 9.7015 51.6316 10.7882 51.1516 11.7082C50.6849 12.6282 50.0182 13.3415 49.1516 13.8482C48.2982 14.3415 47.2782 14.5882 46.0916 14.5882ZM55.0736 14.3682V0.368163H61.0736C61.9936 0.368163 62.7936 0.53483 63.4736 0.868164C64.1536 1.2015 64.6803 1.66816 65.0536 2.26816C65.4403 2.86816 65.6336 3.57483 65.6336 4.38816C65.6336 5.30816 65.3603 6.1015 64.8136 6.76816C64.2803 7.4215 63.5603 7.8815 62.6536 8.14816L65.7936 14.3682H64.0936L61.0936 8.34816H56.6136V14.3682H55.0736ZM56.6136 7.04816H60.9736C61.9203 7.04816 62.6736 6.80816 63.2336 6.32816C63.8069 5.84816 64.0936 5.2015 64.0936 4.38816C64.0936 3.58816 63.8069 2.94816 63.2336 2.46816C62.6736 1.98816 61.9203 1.74816 60.9736 1.74816H56.6136V7.04816ZM68.3642 14.3682V0.368163H69.9042V14.3682H68.3642ZM77.2531 14.3682V1.74816H72.1931V0.368163H83.8531V1.74816H78.7931V14.3682H77.2531ZM90.4122 14.3682V8.66816L84.8522 0.368163H86.6522L91.2322 7.30816L95.7922 0.368163H97.5322L91.9522 8.72816V14.3682H90.4122Z" fill="#55585D"/>
</svg>
