<svg width="27" height="30" viewBox="0 0 27 30" fill="none" xmlns="http://www.w3.org/2000/svg">
<path d="M22.4832 0.478715C23.2849 -0.278938 24.5427 0.628905 24.0762 1.62845L18.8007 12.9311C18.634 13.2882 18.6926 13.7099 18.9503 14.0081L26.6426 22.9063C27.332 23.7038 26.4778 24.8874 25.5037 24.4843L14.6353 19.9867C14.2712 19.836 13.8525 19.9133 13.5661 20.184L4.50074 28.7514C3.69905 29.5091 2.44118 28.6012 2.90772 27.6017L8.18324 16.299C8.34992 15.9419 8.29132 15.5202 8.0336 15.2221L0.341306 6.3238C-0.348101 5.52631 0.506127 4.34272 1.48019 4.74581L12.3486 9.24338C12.7127 9.39406 13.1314 9.31684 13.4178 9.04615L22.4832 0.478715Z" fill="#5E1EE5"/>
</svg>
