<svg width="100" height="16" viewBox="0 0 100 16" fill="none" xmlns="http://www.w3.org/2000/svg">
<path d="M6.26 15.2C5.12667 15.2 4.02 14.9933 2.94 14.58C1.86 14.1533 0.9 13.5533 0.06 12.78L1.72 10.7C2.53333 11.42 3.31333 11.94 4.06 12.26C4.82 12.58 5.62 12.74 6.46 12.74C7.04667 12.74 7.55333 12.6733 7.98 12.54C8.40667 12.3933 8.73333 12.1867 8.96 11.92C9.2 11.6533 9.32 11.34 9.32 10.98C9.32 10.5 9.14667 10.1333 8.8 9.88C8.45333 9.61333 7.86 9.40667 7.02 9.26L4.24 8.78C3.05333 8.58 2.14667 8.16 1.52 7.52C0.906667 6.88 0.6 6.05333 0.6 5.04C0.6 4.17333 0.82 3.42 1.26 2.78C1.71333 2.14 2.34667 1.65333 3.16 1.32C3.98667 0.973333 4.96667 0.799999 6.1 0.799999C7.12667 0.799999 8.14667 0.973333 9.16 1.32C10.1867 1.66667 11.0933 2.14667 11.88 2.76L10.32 4.92C8.85333 3.8 7.38 3.24 5.9 3.24C5.38 3.24 4.92667 3.30667 4.54 3.44C4.15333 3.57333 3.85333 3.76 3.64 4C3.44 4.22667 3.34 4.5 3.34 4.82C3.34 5.24667 3.49333 5.58 3.8 5.82C4.10667 6.04667 4.62 6.22 5.34 6.34L7.98 6.78C9.38 7.00667 10.4267 7.45333 11.12 8.12C11.8133 8.77333 12.16 9.64 12.16 10.72C12.16 11.6267 11.92 12.42 11.44 13.1C10.96 13.7667 10.2733 14.2867 9.38 14.66C8.5 15.02 7.46 15.2 6.26 15.2ZM20.2572 15.2C18.9905 15.2 17.8905 14.9467 16.9572 14.44C16.0372 13.9333 15.3239 13.2133 14.8172 12.28C14.3105 11.3333 14.0572 10.2267 14.0572 8.96V0.999999H16.9572V8.96C16.9572 9.68 17.0905 10.3133 17.3572 10.86C17.6372 11.3933 18.0239 11.8067 18.5172 12.1C19.0239 12.38 19.6105 12.52 20.2772 12.52C20.9439 12.52 21.5239 12.38 22.0172 12.1C22.5105 11.8067 22.8905 11.3933 23.1572 10.86C23.4372 10.3133 23.5772 9.68 23.5772 8.96V0.999999H26.4572V8.96C26.4572 10.2133 26.2039 11.3133 25.6972 12.26C25.1905 13.1933 24.4705 13.92 23.5372 14.44C22.6172 14.9467 21.5239 15.2 20.2572 15.2ZM29.1694 15V0.999999H36.1894C37.1094 0.999999 37.916 1.18667 38.6094 1.56C39.316 1.93333 39.8694 2.45333 40.2694 3.12C40.6694 3.77333 40.8694 4.53333 40.8694 5.4C40.8694 6.22667 40.6694 6.96667 40.2694 7.62C39.8694 8.27333 39.316 8.78667 38.6094 9.16C37.9027 9.53333 37.096 9.72 36.1894 9.72H32.0694V15H29.1694ZM32.0694 7.32H35.8694C36.496 7.32 36.996 7.14667 37.3694 6.8C37.756 6.45333 37.9494 5.99333 37.9494 5.42C37.9494 4.83333 37.756 4.36667 37.3694 4.02C36.996 3.67333 36.496 3.5 35.8694 3.5H32.0694V7.32ZM43.1827 15V0.999999H50.2027C51.1227 0.999999 51.9293 1.18667 52.6227 1.56C53.3293 1.93333 53.8827 2.45333 54.2827 3.12C54.6827 3.77333 54.8827 4.53333 54.8827 5.4C54.8827 6.22667 54.6827 6.96667 54.2827 7.62C53.8827 8.27333 53.3293 8.78667 52.6227 9.16C51.916 9.53333 51.1093 9.72 50.2027 9.72H46.0827V15H43.1827ZM46.0827 7.32H49.8827C50.5093 7.32 51.0093 7.14667 51.3827 6.8C51.7693 6.45333 51.9627 5.99333 51.9627 5.42C51.9627 4.83333 51.7693 4.36667 51.3827 4.02C51.0093 3.67333 50.5093 3.5 49.8827 3.5H46.0827V7.32ZM64.0559 15.22C63.0159 15.22 62.0493 15.04 61.1559 14.68C60.2626 14.3067 59.4759 13.7933 58.7959 13.14C58.1293 12.4733 57.6026 11.7067 57.2159 10.84C56.8426 9.96 56.6559 9.01333 56.6559 8C56.6559 6.98667 56.8426 6.04667 57.2159 5.18C57.6026 4.3 58.1293 3.53333 58.7959 2.88C59.4759 2.21333 60.2626 1.7 61.1559 1.34C62.0493 0.966666 63.0159 0.779999 64.0559 0.779999C65.0959 0.779999 66.0626 0.966666 66.9559 1.34C67.8626 1.7 68.6493 2.21333 69.3159 2.88C69.9959 3.53333 70.5226 4.3 70.8959 5.18C71.2693 6.04667 71.4559 6.98667 71.4559 8C71.4559 9.01333 71.2693 9.96 70.8959 10.84C70.5226 11.7067 69.9959 12.4733 69.3159 13.14C68.6493 13.7933 67.8626 14.3067 66.9559 14.68C66.0626 15.04 65.0959 15.22 64.0559 15.22ZM64.0559 12.56C64.6959 12.56 65.2826 12.4467 65.8159 12.22C66.3493 11.98 66.8159 11.66 67.2159 11.26C67.6159 10.8467 67.9293 10.36 68.1559 9.8C68.3826 9.24 68.4959 8.64 68.4959 8C68.4959 7.34667 68.3826 6.74667 68.1559 6.2C67.9293 5.64 67.6159 5.16 67.2159 4.76C66.8159 4.34667 66.3493 4.02667 65.8159 3.8C65.2826 3.56 64.6959 3.44 64.0559 3.44C63.4293 3.44 62.8493 3.56 62.3159 3.8C61.7826 4.02667 61.3159 4.34667 60.9159 4.76C60.5159 5.16 60.2026 5.64 59.9759 6.2C59.7493 6.74667 59.6359 7.34 59.6359 7.98C59.6359 8.63333 59.7493 9.24 59.9759 9.8C60.2026 10.36 60.5159 10.8467 60.9159 11.26C61.3159 11.66 61.7826 11.98 62.3159 12.22C62.8493 12.4467 63.4293 12.56 64.0559 12.56ZM73.8655 15V0.999999H80.7055C81.6521 0.999999 82.4855 1.18667 83.2055 1.56C83.9388 1.92 84.5055 2.42667 84.9055 3.08C85.3188 3.73333 85.5255 4.48667 85.5255 5.34C85.5255 6.23333 85.2788 7.02 84.7855 7.7C84.2921 8.38 83.6321 8.88667 82.8055 9.22L85.9055 15H82.6655L79.9255 9.64H76.7655V15H73.8655ZM76.7655 7.26H80.4455C81.0988 7.26 81.6188 7.08667 82.0055 6.74C82.4055 6.39333 82.6055 5.94 82.6055 5.38C82.6055 4.82 82.4055 4.36667 82.0055 4.02C81.6188 3.67333 81.0988 3.5 80.4455 3.5H76.7655V7.26ZM91.523 15V3.56H86.803V0.999999H99.123V3.56H94.423V15H91.523Z" fill="#1C2027"/>
</svg>
