<svg width="330" height="16" viewBox="0 0 330 16" fill="none" xmlns="http://www.w3.org/2000/svg">
<path d="M5.4 15.0376V2.4176H0.34V1.0376H12V2.4176H6.94V15.0376H5.4ZM14.2837 15.0376V1.0376H24.3037V2.3976H15.8237V7.2976H21.3638V8.6376H15.8237V13.6776H24.3837V15.0376H14.2837ZM32.7095 15.2576C31.6962 15.2576 30.7495 15.0776 29.8695 14.7176C28.9895 14.3443 28.2162 13.8309 27.5495 13.1776C26.8829 12.5109 26.3629 11.7443 25.9895 10.8776C25.6295 9.9976 25.4495 9.05093 25.4495 8.0376C25.4495 7.02426 25.6295 6.08426 25.9895 5.2176C26.3629 4.3376 26.8829 3.57093 27.5495 2.9176C28.2162 2.25093 28.9895 1.7376 29.8695 1.3776C30.7495 1.00426 31.6962 0.817597 32.7095 0.817597C33.4429 0.817597 34.1429 0.91093 34.8095 1.0976C35.4895 1.27093 36.1162 1.53093 36.6895 1.8776C37.2762 2.21093 37.7962 2.62426 38.2495 3.1176L37.2295 4.1976C36.6829 3.57093 36.0095 3.09093 35.2095 2.7576C34.4095 2.41093 33.5762 2.2376 32.7095 2.2376C31.8962 2.2376 31.1429 2.38426 30.4495 2.6776C29.7562 2.97093 29.1495 3.38426 28.6295 3.9176C28.1229 4.4376 27.7229 5.05093 27.4295 5.7576C27.1495 6.45093 27.0095 7.21093 27.0095 8.0376C27.0095 8.85093 27.1495 9.61093 27.4295 10.3176C27.7229 11.0243 28.1295 11.6443 28.6495 12.1776C29.1695 12.6976 29.7762 13.1043 30.4695 13.3976C31.1762 13.6909 31.9362 13.8376 32.7495 13.8376C33.6162 13.8376 34.4429 13.6709 35.2295 13.3376C36.0162 12.9909 36.6762 12.5176 37.2095 11.9176L38.2095 12.9576C37.7429 13.4376 37.2162 13.8509 36.6295 14.1976C36.0562 14.5443 35.4362 14.8109 34.7695 14.9976C34.1029 15.1709 33.4162 15.2576 32.7095 15.2576ZM40.9431 15.0376V1.0376H42.4831V7.2976H50.6231V1.0376H52.1631V15.0376H50.6231V8.6776H42.4831V15.0376H40.9431ZM55.64 15.0376V1.0376H57.18L65.6 12.3976V1.0376H67.06V15.0376H65.7L57.1 3.3776V15.0376H55.64ZM70.5322 15.0376V1.0376H72.0722V15.0376H70.5322ZM82.1611 15.2576C81.1478 15.2576 80.2011 15.0776 79.3211 14.7176C78.4411 14.3443 77.6678 13.8309 77.0011 13.1776C76.3344 12.5109 75.8144 11.7443 75.4411 10.8776C75.0811 9.9976 74.9011 9.05093 74.9011 8.0376C74.9011 7.02426 75.0811 6.08426 75.4411 5.2176C75.8144 4.3376 76.3344 3.57093 77.0011 2.9176C77.6678 2.25093 78.4411 1.7376 79.3211 1.3776C80.2011 1.00426 81.1478 0.817597 82.1611 0.817597C82.8944 0.817597 83.5944 0.91093 84.2611 1.0976C84.9411 1.27093 85.5678 1.53093 86.1411 1.8776C86.7278 2.21093 87.2478 2.62426 87.7011 3.1176L86.6811 4.1976C86.1344 3.57093 85.4611 3.09093 84.6611 2.7576C83.8611 2.41093 83.0278 2.2376 82.1611 2.2376C81.3478 2.2376 80.5944 2.38426 79.9011 2.6776C79.2078 2.97093 78.6011 3.38426 78.0811 3.9176C77.5744 4.4376 77.1744 5.05093 76.8811 5.7576C76.6011 6.45093 76.4611 7.21093 76.4611 8.0376C76.4611 8.85093 76.6011 9.61093 76.8811 10.3176C77.1744 11.0243 77.5811 11.6443 78.1011 12.1776C78.6211 12.6976 79.2278 13.1043 79.9211 13.3976C80.6278 13.6909 81.3878 13.8376 82.2011 13.8376C83.0678 13.8376 83.8944 13.6709 84.6811 13.3376C85.4678 12.9909 86.1278 12.5176 86.6611 11.9176L87.6611 12.9576C87.1944 13.4376 86.6678 13.8509 86.0811 14.1976C85.5078 14.5443 84.8878 14.8109 84.2211 14.9976C83.5544 15.1709 82.8678 15.2576 82.1611 15.2576ZM88.9347 15.0376L94.7347 1.0376H96.5947L102.355 15.0376H100.675L98.9147 10.6376H92.3147L90.5347 15.0376H88.9347ZM92.8547 9.3176H98.3747L95.6147 2.4576L92.8547 9.3176ZM104.369 15.0376V1.0376H105.909V13.6576H114.249V15.0376H104.369ZM126.076 15.2376C124.969 15.2376 123.909 15.0176 122.896 14.5776C121.883 14.1243 120.989 13.4776 120.216 12.6376L121.236 11.5776C121.956 12.3509 122.723 12.9309 123.536 13.3176C124.363 13.7043 125.229 13.8976 126.136 13.8976C126.869 13.8976 127.516 13.7843 128.076 13.5576C128.649 13.3176 129.096 12.9909 129.416 12.5776C129.736 12.1509 129.896 11.6709 129.896 11.1376C129.896 10.4176 129.643 9.86426 129.136 9.4776C128.643 9.09093 127.823 8.80426 126.676 8.6176L124.656 8.2976C123.309 8.07093 122.316 7.67093 121.676 7.0976C121.036 6.52426 120.716 5.74426 120.716 4.7576C120.716 3.98426 120.923 3.30426 121.336 2.7176C121.749 2.13093 122.323 1.6776 123.056 1.3576C123.803 1.02426 124.663 0.857597 125.636 0.857597C126.623 0.857597 127.589 1.0176 128.536 1.3376C129.496 1.6576 130.369 2.1176 131.156 2.7176L130.276 3.9176C128.743 2.7576 127.176 2.1776 125.576 2.1776C124.909 2.1776 124.323 2.28426 123.816 2.4976C123.309 2.6976 122.916 2.98426 122.636 3.3576C122.356 3.7176 122.216 4.14426 122.216 4.6376C122.216 5.29093 122.436 5.79093 122.876 6.1376C123.316 6.48426 124.043 6.7376 125.056 6.8976L127.056 7.2176C128.589 7.47093 129.703 7.90426 130.396 8.5176C131.089 9.1176 131.436 9.96426 131.436 11.0576C131.436 11.8709 131.209 12.5976 130.756 13.2376C130.303 13.8643 129.669 14.3576 128.856 14.7176C128.056 15.0643 127.129 15.2376 126.076 15.2376ZM139.428 15.2576C138.242 15.2576 137.215 15.0109 136.348 14.5176C135.482 14.0109 134.815 13.2976 134.348 12.3776C133.882 11.4576 133.648 10.3709 133.648 9.1176V1.0376H135.188V9.1176C135.188 10.0776 135.362 10.9109 135.708 11.6176C136.055 12.3243 136.548 12.8709 137.188 13.2576C137.828 13.6443 138.575 13.8376 139.428 13.8376C140.295 13.8376 141.042 13.6443 141.668 13.2576C142.308 12.8709 142.802 12.3243 143.148 11.6176C143.495 10.9109 143.668 10.0776 143.668 9.1176V1.0376H145.208V9.1176C145.208 10.3709 144.968 11.4576 144.488 12.3776C144.022 13.2976 143.355 14.0109 142.488 14.5176C141.635 15.0109 140.615 15.2576 139.428 15.2576ZM148.41 15.0376V1.0376H154.49C155.41 1.0376 156.204 1.20426 156.87 1.5376C157.55 1.87093 158.077 2.34426 158.45 2.9576C158.824 3.5576 159.01 4.26426 159.01 5.0776C159.01 5.89093 158.824 6.60426 158.45 7.2176C158.077 7.8176 157.55 8.29093 156.87 8.6376C156.19 8.97093 155.397 9.1376 154.49 9.1376H149.95V15.0376H148.41ZM149.95 7.7976H154.37C155.317 7.7976 156.07 7.5576 156.63 7.0776C157.19 6.58426 157.47 5.92426 157.47 5.0976C157.47 4.27093 157.19 3.6176 156.63 3.1376C156.07 2.6576 155.317 2.4176 154.37 2.4176H149.95V7.7976ZM161.76 15.0376V1.0376H167.84C168.76 1.0376 169.553 1.20426 170.22 1.5376C170.9 1.87093 171.426 2.34426 171.8 2.9576C172.173 3.5576 172.36 4.26426 172.36 5.0776C172.36 5.89093 172.173 6.60426 171.8 7.2176C171.426 7.8176 170.9 8.29093 170.22 8.6376C169.54 8.97093 168.746 9.1376 167.84 9.1376H163.3V15.0376H161.76ZM163.3 7.7976H167.72C168.666 7.7976 169.42 7.5576 169.98 7.0776C170.54 6.58426 170.82 5.92426 170.82 5.0976C170.82 4.27093 170.54 3.6176 169.98 3.1376C169.42 2.6576 168.666 2.4176 167.72 2.4176H163.3V7.7976ZM181.669 15.2576C180.655 15.2576 179.709 15.0776 178.829 14.7176C177.962 14.3443 177.195 13.8309 176.529 13.1776C175.875 12.5109 175.362 11.7443 174.989 10.8776C174.629 9.9976 174.449 9.05093 174.449 8.0376C174.449 7.02426 174.629 6.08426 174.989 5.2176C175.362 4.3376 175.875 3.57093 176.529 2.9176C177.195 2.25093 177.962 1.7376 178.829 1.3776C179.709 1.00426 180.655 0.817597 181.669 0.817597C182.669 0.817597 183.602 1.00426 184.469 1.3776C185.349 1.7376 186.115 2.25093 186.769 2.9176C187.435 3.57093 187.949 4.3376 188.309 5.2176C188.682 6.08426 188.869 7.02426 188.869 8.0376C188.869 9.05093 188.682 9.9976 188.309 10.8776C187.949 11.7443 187.435 12.5109 186.769 13.1776C186.115 13.8309 185.349 14.3443 184.469 14.7176C183.602 15.0776 182.669 15.2576 181.669 15.2576ZM181.669 13.8376C182.469 13.8376 183.209 13.6909 183.889 13.3976C184.569 13.1043 185.162 12.6976 185.669 12.1776C186.189 11.6443 186.589 11.0243 186.869 10.3176C187.162 9.61093 187.309 8.85093 187.309 8.0376C187.309 7.21093 187.162 6.45093 186.869 5.7576C186.589 5.05093 186.189 4.4376 185.669 3.9176C185.162 3.38426 184.569 2.97093 183.889 2.6776C183.209 2.38426 182.469 2.2376 181.669 2.2376C180.869 2.2376 180.122 2.38426 179.429 2.6776C178.749 2.97093 178.149 3.38426 177.629 3.9176C177.122 4.4376 176.722 5.05093 176.429 5.7576C176.149 6.45093 176.009 7.20426 176.009 8.0176C176.009 8.84426 176.149 9.61093 176.429 10.3176C176.722 11.0243 177.122 11.6443 177.629 12.1776C178.149 12.6976 178.749 13.1043 179.429 13.3976C180.122 13.6909 180.869 13.8376 181.669 13.8376ZM191.681 15.0376V1.0376H197.681C198.601 1.0376 199.401 1.20426 200.081 1.5376C200.761 1.87093 201.287 2.3376 201.661 2.9376C202.047 3.5376 202.241 4.24426 202.241 5.0576C202.241 5.9776 201.967 6.77093 201.421 7.4376C200.887 8.09093 200.167 8.55093 199.261 8.8176L202.401 15.0376H200.701L197.701 9.0176H193.221V15.0376H191.681ZM193.221 7.7176H197.581C198.527 7.7176 199.281 7.4776 199.841 6.9976C200.414 6.5176 200.701 5.87093 200.701 5.0576C200.701 4.2576 200.414 3.6176 199.841 3.1376C199.281 2.6576 198.527 2.4176 197.581 2.4176H193.221V7.7176ZM208.323 15.0376V2.4176H203.263V1.0376H214.923V2.4176H209.863V15.0376H208.323ZM228.504 15.2576C227.491 15.2576 226.544 15.0776 225.664 14.7176C224.784 14.3443 224.011 13.8309 223.344 13.1776C222.677 12.5109 222.157 11.7443 221.784 10.8776C221.424 9.9976 221.244 9.05093 221.244 8.0376C221.244 7.02426 221.424 6.08426 221.784 5.2176C222.157 4.3376 222.677 3.57093 223.344 2.9176C224.011 2.25093 224.784 1.7376 225.664 1.3776C226.544 1.00426 227.491 0.817597 228.504 0.817597C229.237 0.817597 229.937 0.91093 230.604 1.0976C231.284 1.27093 231.911 1.53093 232.484 1.8776C233.071 2.21093 233.591 2.62426 234.044 3.1176L233.024 4.1976C232.477 3.57093 231.804 3.09093 231.004 2.7576C230.204 2.41093 229.371 2.2376 228.504 2.2376C227.691 2.2376 226.937 2.38426 226.244 2.6776C225.551 2.97093 224.944 3.38426 224.424 3.9176C223.917 4.4376 223.517 5.05093 223.224 5.7576C222.944 6.45093 222.804 7.21093 222.804 8.0376C222.804 8.85093 222.944 9.61093 223.224 10.3176C223.517 11.0243 223.924 11.6443 224.444 12.1776C224.964 12.6976 225.571 13.1043 226.264 13.3976C226.971 13.6909 227.731 13.8376 228.544 13.8376C229.411 13.8376 230.237 13.6709 231.024 13.3376C231.811 12.9909 232.471 12.5176 233.004 11.9176L234.004 12.9576C233.537 13.4376 233.011 13.8509 232.424 14.1976C231.851 14.5443 231.231 14.8109 230.564 14.9976C229.897 15.1709 229.211 15.2576 228.504 15.2576ZM243.005 15.2576C241.991 15.2576 241.045 15.0776 240.165 14.7176C239.298 14.3443 238.531 13.8309 237.865 13.1776C237.211 12.5109 236.698 11.7443 236.325 10.8776C235.965 9.9976 235.785 9.05093 235.785 8.0376C235.785 7.02426 235.965 6.08426 236.325 5.2176C236.698 4.3376 237.211 3.57093 237.865 2.9176C238.531 2.25093 239.298 1.7376 240.165 1.3776C241.045 1.00426 241.991 0.817597 243.005 0.817597C244.005 0.817597 244.938 1.00426 245.805 1.3776C246.685 1.7376 247.451 2.25093 248.105 2.9176C248.771 3.57093 249.285 4.3376 249.645 5.2176C250.018 6.08426 250.205 7.02426 250.205 8.0376C250.205 9.05093 250.018 9.9976 249.645 10.8776C249.285 11.7443 248.771 12.5109 248.105 13.1776C247.451 13.8309 246.685 14.3443 245.805 14.7176C244.938 15.0776 244.005 15.2576 243.005 15.2576ZM243.005 13.8376C243.805 13.8376 244.545 13.6909 245.225 13.3976C245.905 13.1043 246.498 12.6976 247.005 12.1776C247.525 11.6443 247.925 11.0243 248.205 10.3176C248.498 9.61093 248.645 8.85093 248.645 8.0376C248.645 7.21093 248.498 6.45093 248.205 5.7576C247.925 5.05093 247.525 4.4376 247.005 3.9176C246.498 3.38426 245.905 2.97093 245.225 2.6776C244.545 2.38426 243.805 2.2376 243.005 2.2376C242.205 2.2376 241.458 2.38426 240.765 2.6776C240.085 2.97093 239.485 3.38426 238.965 3.9176C238.458 4.4376 238.058 5.05093 237.765 5.7576C237.485 6.45093 237.345 7.20426 237.345 8.0176C237.345 8.84426 237.485 9.61093 237.765 10.3176C238.058 11.0243 238.458 11.6443 238.965 12.1776C239.485 12.6976 240.085 13.1043 240.765 13.3976C241.458 13.6909 242.205 13.8376 243.005 13.8376ZM253.017 15.0376V1.0376H254.557L262.977 12.3976V1.0376H264.437V15.0376H263.077L254.477 3.3776V15.0376H253.017ZM271.769 15.0376V2.4176H266.709V1.0376H278.369V2.4176H273.309V15.0376H271.769ZM276.692 15.0376L282.492 1.0376H284.352L290.112 15.0376H288.432L286.672 10.6376H280.072L278.292 15.0376H276.692ZM280.612 9.3176H286.132L283.372 2.4576L280.612 9.3176ZM298.024 15.2576C297.01 15.2576 296.064 15.0776 295.184 14.7176C294.304 14.3443 293.53 13.8309 292.864 13.1776C292.197 12.5109 291.677 11.7443 291.304 10.8776C290.944 9.9976 290.764 9.05093 290.764 8.0376C290.764 7.02426 290.944 6.08426 291.304 5.2176C291.677 4.3376 292.197 3.57093 292.864 2.9176C293.53 2.25093 294.304 1.7376 295.184 1.3776C296.064 1.00426 297.01 0.817597 298.024 0.817597C298.757 0.817597 299.457 0.91093 300.124 1.0976C300.804 1.27093 301.43 1.53093 302.004 1.8776C302.59 2.21093 303.11 2.62426 303.564 3.1176L302.544 4.1976C301.997 3.57093 301.324 3.09093 300.524 2.7576C299.724 2.41093 298.89 2.2376 298.024 2.2376C297.21 2.2376 296.457 2.38426 295.764 2.6776C295.07 2.97093 294.464 3.38426 293.944 3.9176C293.437 4.4376 293.037 5.05093 292.744 5.7576C292.464 6.45093 292.324 7.21093 292.324 8.0376C292.324 8.85093 292.464 9.61093 292.744 10.3176C293.037 11.0243 293.444 11.6443 293.964 12.1776C294.484 12.6976 295.09 13.1043 295.784 13.3976C296.49 13.6909 297.25 13.8376 298.064 13.8376C298.93 13.8376 299.757 13.6709 300.544 13.3376C301.33 12.9909 301.99 12.5176 302.524 11.9176L303.524 12.9576C303.057 13.4376 302.53 13.8509 301.944 14.1976C301.37 14.5443 300.75 14.8109 300.084 14.9976C299.417 15.1709 298.73 15.2576 298.024 15.2576ZM310.313 15.0376V2.4176H305.253V1.0376H316.913V2.4176H311.853V15.0376H310.313ZM323.932 15.2376C322.825 15.2376 321.765 15.0176 320.752 14.5776C319.738 14.1243 318.845 13.4776 318.072 12.6376L319.092 11.5776C319.812 12.3509 320.578 12.9309 321.392 13.3176C322.218 13.7043 323.085 13.8976 323.992 13.8976C324.725 13.8976 325.372 13.7843 325.932 13.5576C326.505 13.3176 326.952 12.9909 327.272 12.5776C327.592 12.1509 327.752 11.6709 327.752 11.1376C327.752 10.4176 327.498 9.86426 326.992 9.4776C326.498 9.09093 325.678 8.80426 324.532 8.6176L322.512 8.2976C321.165 8.07093 320.172 7.67093 319.532 7.0976C318.892 6.52426 318.572 5.74426 318.572 4.7576C318.572 3.98426 318.778 3.30426 319.192 2.7176C319.605 2.13093 320.178 1.6776 320.912 1.3576C321.658 1.02426 322.518 0.857597 323.492 0.857597C324.478 0.857597 325.445 1.0176 326.392 1.3376C327.352 1.6576 328.225 2.1176 329.012 2.7176L328.132 3.9176C326.598 2.7576 325.032 2.1776 323.432 2.1776C322.765 2.1776 322.178 2.28426 321.672 2.4976C321.165 2.6976 320.772 2.98426 320.492 3.3576C320.212 3.7176 320.072 4.14426 320.072 4.6376C320.072 5.29093 320.292 5.79093 320.732 6.1376C321.172 6.48426 321.898 6.7376 322.912 6.8976L324.912 7.2176C326.445 7.47093 327.558 7.90426 328.252 8.5176C328.945 9.1176 329.292 9.96426 329.292 11.0576C329.292 11.8709 329.065 12.5976 328.612 13.2376C328.158 13.8643 327.525 14.3576 326.712 14.7176C325.912 15.0643 324.985 15.2376 323.932 15.2376Z" fill="#55585D"/>
</svg>
